<svg width="130" height="31" viewBox="0 0 130 31" fill="none" xmlns="http://www.w3.org/2000/svg">
<rect x="0.5" y="0.5" width="129" height="30" fill="white"/>
<rect x="0.5" y="0.5" width="129" height="30" stroke="#E0E0E0"/>
<path d="M17.016 20.096C16.376 20.096 15.784 19.992 15.24 19.784C14.704 19.568 14.236 19.268 13.836 18.884C13.444 18.492 13.136 18.036 12.912 17.516C12.688 16.996 12.576 16.424 12.576 15.8C12.576 15.176 12.688 14.604 12.912 14.084C13.136 13.564 13.448 13.112 13.848 12.728C14.248 12.336 14.716 12.036 15.252 11.828C15.796 11.612 16.388 11.504 17.028 11.504C17.676 11.504 18.272 11.616 18.816 11.84C19.368 12.056 19.836 12.38 20.22 12.812L19.44 13.568C19.12 13.232 18.76 12.984 18.36 12.824C17.96 12.656 17.532 12.572 17.076 12.572C16.604 12.572 16.164 12.652 15.756 12.812C15.356 12.972 15.008 13.196 14.712 13.484C14.416 13.772 14.184 14.116 14.016 14.516C13.856 14.908 13.776 15.336 13.776 15.8C13.776 16.264 13.856 16.696 14.016 17.096C14.184 17.488 14.416 17.828 14.712 18.116C15.008 18.404 15.356 18.628 15.756 18.788C16.164 18.948 16.604 19.028 17.076 19.028C17.532 19.028 17.96 18.948 18.36 18.788C18.76 18.62 19.12 18.364 19.44 18.02L20.22 18.776C19.836 19.208 19.368 19.536 18.816 19.76C18.272 19.984 17.672 20.096 17.016 20.096ZM25.1599 13.58C25.6799 13.58 26.1359 13.68 26.5279 13.88C26.9279 14.08 27.2399 14.384 27.4639 14.792C27.6879 15.2 27.7999 15.716 27.7999 16.34V20H26.6479V16.472C26.6479 15.856 26.4959 15.392 26.1919 15.08C25.8959 14.768 25.4759 14.612 24.9319 14.612C24.5239 14.612 24.1679 14.692 23.8639 14.852C23.5599 15.012 23.3239 15.248 23.1559 15.56C22.9959 15.872 22.9159 16.26 22.9159 16.724V20H21.7639V11.096H22.9159V15.356L22.6879 14.9C22.8959 14.484 23.2159 14.16 23.6479 13.928C24.0799 13.696 24.5839 13.58 25.1599 13.58ZM32.7638 20.072C32.0838 20.072 31.4838 19.932 30.9638 19.652C30.4518 19.372 30.0518 18.988 29.7638 18.5C29.4838 18.012 29.3438 17.452 29.3438 16.82C29.3438 16.188 29.4798 15.628 29.7518 15.14C30.0318 14.652 30.4118 14.272 30.8918 14C31.3798 13.72 31.9278 13.58 32.5358 13.58C33.1518 13.58 33.6958 13.716 34.1678 13.988C34.6398 14.26 35.0078 14.644 35.2718 15.14C35.5438 15.628 35.6798 16.2 35.6798 16.856C35.6798 16.904 35.6758 16.96 35.6678 17.024C35.6678 17.088 35.6638 17.148 35.6558 17.204H30.2438V16.376H35.0558L34.5878 16.664C34.5958 16.256 34.5118 15.892 34.3358 15.572C34.1598 15.252 33.9158 15.004 33.6038 14.828C33.2998 14.644 32.9438 14.552 32.5358 14.552C32.1358 14.552 31.7798 14.644 31.4678 14.828C31.1558 15.004 30.9118 15.256 30.7358 15.584C30.5598 15.904 30.4718 16.272 30.4718 16.688V16.88C30.4718 17.304 30.5678 17.684 30.7598 18.02C30.9598 18.348 31.2358 18.604 31.5878 18.788C31.9398 18.972 32.3438 19.064 32.7998 19.064C33.1758 19.064 33.5158 19 33.8198 18.872C34.1318 18.744 34.4038 18.552 34.6358 18.296L35.2718 19.04C34.9838 19.376 34.6238 19.632 34.1918 19.808C33.7678 19.984 33.2918 20.072 32.7638 20.072ZM41.0517 20V18.656L40.9917 18.404V16.112C40.9917 15.624 40.8477 15.248 40.5597 14.984C40.2797 14.712 39.8557 14.576 39.2877 14.576C38.9117 14.576 38.5437 14.64 38.1837 14.768C37.8237 14.888 37.5197 15.052 37.2717 15.26L36.7917 14.396C37.1197 14.132 37.5117 13.932 37.9677 13.796C38.4317 13.652 38.9157 13.58 39.4197 13.58C40.2917 13.58 40.9637 13.792 41.4357 14.216C41.9077 14.64 42.1437 15.288 42.1437 16.16V20H41.0517ZM38.9637 20.072C38.4917 20.072 38.0757 19.992 37.7157 19.832C37.3637 19.672 37.0917 19.452 36.8997 19.172C36.7077 18.884 36.6117 18.56 36.6117 18.2C36.6117 17.856 36.6917 17.544 36.8517 17.264C37.0197 16.984 37.2877 16.76 37.6557 16.592C38.0317 16.424 38.5357 16.34 39.1677 16.34H41.1837V17.168H39.2157C38.6397 17.168 38.2517 17.264 38.0517 17.456C37.8517 17.648 37.7517 17.88 37.7517 18.152C37.7517 18.464 37.8757 18.716 38.1237 18.908C38.3717 19.092 38.7157 19.184 39.1557 19.184C39.5877 19.184 39.9637 19.088 40.2837 18.896C40.6117 18.704 40.8477 18.424 40.9917 18.056L41.2197 18.848C41.0677 19.224 40.7997 19.524 40.4157 19.748C40.0317 19.964 39.5477 20.072 38.9637 20.072ZM47.6476 20.072C47.1196 20.072 46.6356 19.952 46.1956 19.712C45.7636 19.464 45.4156 19.1 45.1516 18.62C44.8956 18.14 44.7676 17.54 44.7676 16.82C44.7676 16.1 44.8916 15.5 45.1396 15.02C45.3956 14.54 45.7396 14.18 46.1716 13.94C46.6116 13.7 47.1036 13.58 47.6476 13.58C48.2716 13.58 48.8236 13.716 49.3036 13.988C49.7836 14.26 50.1636 14.64 50.4436 15.128C50.7236 15.608 50.8636 16.172 50.8636 16.82C50.8636 17.468 50.7236 18.036 50.4436 18.524C50.1636 19.012 49.7836 19.392 49.3036 19.664C48.8236 19.936 48.2716 20.072 47.6476 20.072ZM44.2756 22.328V13.64H45.3796V15.356L45.3076 16.832L45.4276 18.308V22.328H44.2756ZM47.5516 19.064C47.9596 19.064 48.3236 18.972 48.6436 18.788C48.9716 18.604 49.2276 18.344 49.4116 18.008C49.6036 17.664 49.6996 17.268 49.6996 16.82C49.6996 16.364 49.6036 15.972 49.4116 15.644C49.2276 15.308 48.9716 15.048 48.6436 14.864C48.3236 14.68 47.9596 14.588 47.5516 14.588C47.1516 14.588 46.7876 14.68 46.4596 14.864C46.1396 15.048 45.8836 15.308 45.6916 15.644C45.5076 15.972 45.4156 16.364 45.4156 16.82C45.4156 17.268 45.5076 17.664 45.6916 18.008C45.8836 18.344 46.1396 18.604 46.4596 18.788C46.7876 18.972 47.1516 19.064 47.5516 19.064ZM55.2873 20.072C54.6073 20.072 54.0073 19.932 53.4873 19.652C52.9753 19.372 52.5753 18.988 52.2873 18.5C52.0073 18.012 51.8673 17.452 51.8673 16.82C51.8673 16.188 52.0033 15.628 52.2753 15.14C52.5553 14.652 52.9353 14.272 53.4153 14C53.9033 13.72 54.4513 13.58 55.0593 13.58C55.6753 13.58 56.2193 13.716 56.6913 13.988C57.1633 14.26 57.5313 14.644 57.7953 15.14C58.0673 15.628 58.2033 16.2 58.2033 16.856C58.2033 16.904 58.1993 16.96 58.1913 17.024C58.1913 17.088 58.1873 17.148 58.1793 17.204H52.7673V16.376H57.5793L57.1113 16.664C57.1193 16.256 57.0353 15.892 56.8593 15.572C56.6833 15.252 56.4393 15.004 56.1273 14.828C55.8233 14.644 55.4673 14.552 55.0593 14.552C54.6593 14.552 54.3033 14.644 53.9913 14.828C53.6793 15.004 53.4353 15.256 53.2593 15.584C53.0833 15.904 52.9953 16.272 52.9953 16.688V16.88C52.9953 17.304 53.0913 17.684 53.2833 18.02C53.4833 18.348 53.7593 18.604 54.1113 18.788C54.4633 18.972 54.8673 19.064 55.3233 19.064C55.6993 19.064 56.0393 19 56.3433 18.872C56.6553 18.744 56.9273 18.552 57.1593 18.296L57.7953 19.04C57.5073 19.376 57.1473 19.632 56.7153 19.808C56.2913 19.984 55.8153 20.072 55.2873 20.072ZM59.8029 20V13.64H60.9069V15.368L60.7989 14.936C60.9749 14.496 61.2709 14.16 61.6869 13.928C62.1029 13.696 62.6149 13.58 63.2229 13.58V14.696C63.1749 14.688 63.1269 14.684 63.0789 14.684C63.0389 14.684 62.9989 14.684 62.9589 14.684C62.3429 14.684 61.8549 14.868 61.4949 15.236C61.1349 15.604 60.9549 16.136 60.9549 16.832V20H59.8029ZM69.1955 15.572H73.5275V16.604H69.1955V15.572ZM69.3155 20H68.1155V11.6H74.0435V12.644H69.3155V20ZM75.5647 20V13.64H76.7167V20H75.5647ZM76.1407 12.416C75.9167 12.416 75.7287 12.344 75.5767 12.2C75.4327 12.056 75.3607 11.88 75.3607 11.672C75.3607 11.456 75.4327 11.276 75.5767 11.132C75.7287 10.988 75.9167 10.916 76.1407 10.916C76.3647 10.916 76.5487 10.988 76.6927 11.132C76.8447 11.268 76.9207 11.44 76.9207 11.648C76.9207 11.864 76.8487 12.048 76.7047 12.2C76.5607 12.344 76.3727 12.416 76.1407 12.416ZM78.9162 20V13.64H80.0202V15.368L79.9122 14.936C80.0882 14.496 80.3842 14.16 80.8002 13.928C81.2162 13.696 81.7282 13.58 82.3362 13.58V14.696C82.2882 14.688 82.2402 14.684 82.1922 14.684C82.1522 14.684 82.1122 14.684 82.0722 14.684C81.4562 14.684 80.9682 14.868 80.6082 15.236C80.2482 15.604 80.0682 16.136 80.0682 16.832V20H78.9162ZM85.6504 20.072C85.1224 20.072 84.6184 20 84.1384 19.856C83.6664 19.712 83.2944 19.536 83.0224 19.328L83.5024 18.416C83.7744 18.6 84.1104 18.756 84.5104 18.884C84.9104 19.012 85.3184 19.076 85.7344 19.076C86.2704 19.076 86.6544 19 86.8864 18.848C87.1264 18.696 87.2464 18.484 87.2464 18.212C87.2464 18.012 87.1744 17.856 87.0304 17.744C86.8864 17.632 86.6944 17.548 86.4544 17.492C86.2224 17.436 85.9624 17.388 85.6744 17.348C85.3864 17.3 85.0984 17.244 84.8104 17.18C84.5224 17.108 84.2584 17.012 84.0184 16.892C83.7784 16.764 83.5864 16.592 83.4424 16.376C83.2984 16.152 83.2264 15.856 83.2264 15.488C83.2264 15.104 83.3344 14.768 83.5504 14.48C83.7664 14.192 84.0704 13.972 84.4624 13.82C84.8624 13.66 85.3344 13.58 85.8784 13.58C86.2944 13.58 86.7144 13.632 87.1384 13.736C87.5704 13.832 87.9224 13.972 88.1944 14.156L87.7024 15.068C87.4144 14.876 87.1144 14.744 86.8024 14.672C86.4904 14.6 86.1784 14.564 85.8664 14.564C85.3624 14.564 84.9864 14.648 84.7384 14.816C84.4904 14.976 84.3664 15.184 84.3664 15.44C84.3664 15.656 84.4384 15.824 84.5824 15.944C84.7344 16.056 84.9264 16.144 85.1584 16.208C85.3984 16.272 85.6624 16.328 85.9504 16.376C86.2384 16.416 86.5264 16.472 86.8144 16.544C87.1024 16.608 87.3624 16.7 87.5944 16.82C87.8344 16.94 88.0264 17.108 88.1704 17.324C88.3224 17.54 88.3984 17.828 88.3984 18.188C88.3984 18.572 88.2864 18.904 88.0624 19.184C87.8384 19.464 87.5224 19.684 87.1144 19.844C86.7064 19.996 86.2184 20.072 85.6504 20.072ZM92.0221 20.072C91.3821 20.072 90.8861 19.9 90.5341 19.556C90.1821 19.212 90.0061 18.72 90.0061 18.08V12.248H91.1581V18.032C91.1581 18.376 91.2421 18.64 91.4101 18.824C91.5861 19.008 91.8341 19.1 92.1541 19.1C92.5141 19.1 92.8141 19 93.0541 18.8L93.4141 19.628C93.2381 19.78 93.0261 19.892 92.7781 19.964C92.5381 20.036 92.2861 20.072 92.0221 20.072ZM88.9261 14.588V13.64H92.9821V14.588H88.9261Z" fill="black"/>
<path d="M109 14L112 17L115 14" stroke="black" stroke-linecap="round" stroke-linejoin="round"/>
</svg>
